<?xml version="1.0" encoding="UTF-8" standalone="no"?>
<!-- Created with Inkscape (http://www.inkscape.org/) -->

<svg
   xmlns:dc="http://purl.org/dc/elements/1.1/"
   xmlns:cc="http://creativecommons.org/ns#"
   xmlns:rdf="http://www.w3.org/1999/02/22-rdf-syntax-ns#"
   xmlns:svg="http://www.w3.org/2000/svg"
   xmlns="http://www.w3.org/2000/svg"
   xmlns:sodipodi="http://sodipodi.sourceforge.net/DTD/sodipodi-0.dtd"
   xmlns:inkscape="http://www.inkscape.org/namespaces/inkscape"
   version="1.1"
   id="svg2"
   xml:space="preserve"
   width="589.16663"
   height="438.89999"
   viewBox="0 0 589.16662 438.89998"
   sodipodi:docname="ProjectReportTemplatePictureEdit.svg"
   inkscape:version="0.92.4 (5da689c313, 2019-01-14)"><metadata
     id="metadata8"><rdf:RDF><cc:Work
         rdf:about=""><dc:format>image/svg+xml</dc:format><dc:type
           rdf:resource="http://purl.org/dc/dcmitype/StillImage" /><dc:title></dc:title></cc:Work></rdf:RDF></metadata><defs
     id="defs6"><clipPath
       clipPathUnits="userSpaceOnUse"
       id="clipPath18"><path
         d="M 0,0.1 H 595.2 V 841.9 H 0 Z"
         id="path16"
         inkscape:connector-curvature="0"
         style="clip-rule:evenodd" /></clipPath><clipPath
       clipPathUnits="userSpaceOnUse"
       id="clipPath172"><path
         d="m -9,420 h 613 v 0.1 H -9 Z"
         id="path170"
         inkscape:connector-curvature="0" /></clipPath></defs><sodipodi:namedview
     pagecolor="#ffffff"
     bordercolor="#666666"
     borderopacity="1"
     objecttolerance="10"
     gridtolerance="10"
     guidetolerance="10"
     inkscape:pageopacity="0"
     inkscape:pageshadow="2"
     inkscape:window-width="1424"
     inkscape:window-height="912"
     id="namedview4"
     showgrid="false"
     fit-margin-top="0"
     fit-margin-left="0"
     fit-margin-right="0"
     fit-margin-bottom="0"
     inkscape:zoom="0.5945743"
     inkscape:cx="456.97113"
     inkscape:cy="62.836452"
     inkscape:window-x="0"
     inkscape:window-y="0"
     inkscape:window-maximized="0"
     inkscape:current-layer="g12" /><g
     id="g10"
     inkscape:groupmode="layer"
     inkscape:label="ProjectReportTemplatePicture"
     transform="matrix(1.3333333,0,0,-1.3333333,-76.566665,1070.2333)"><g
       id="g12"><path
         inkscape:connector-curvature="0"
         id="path20"
         style="fill:#ffffff;fill-opacity:1;fill-rule:evenodd;stroke:none"
         d="M 0,842 H 595.2 V 0.1 H 0 Z" /><g
         id="g1128"><path
           d="M 401.1,691.8 H 343 V 802.3 H 459.2 V 691.8 Z"
           style="fill:#ffffff;fill-opacity:1;fill-rule:evenodd;stroke:none"
           id="path22"
           inkscape:connector-curvature="0" /><g
           id="g24"><path
             d="M 401.1,691.8 H 343 V 802.3 H 459.2 V 691.8 Z"
             style="fill:none;stroke:#3465af;stroke-width:0.75;stroke-linecap:butt;stroke-linejoin:round;stroke-miterlimit:10;stroke-dasharray:none;stroke-opacity:1"
             id="path26"
             inkscape:connector-curvature="0" /></g><path
           d="M 113.4,626.6 H 70.9 v 85 h 85 v -85 z"
           style="fill:#ffffff;fill-opacity:1;fill-rule:evenodd;stroke:none"
           id="path28"
           inkscape:connector-curvature="0" /><g
           id="g30"><path
             d="M 113.4,626.6 H 70.9 v 85 h 85 v -85 z"
             style="fill:none;stroke:#3465af;stroke-width:0.75;stroke-linecap:butt;stroke-linejoin:round;stroke-miterlimit:10;stroke-dasharray:none;stroke-opacity:1"
             id="path32"
             inkscape:connector-curvature="0" /></g><path
           d="m 143.1,702.6 c 8.9,0 15.6,-12.7 15.6,-29.5 0,-16.7 -6.7,-29.5 -15.6,-29.5 -8.8,0 -15.5,12.8 -15.5,29.5 0,16.8 6.7,29.5 15.5,29.5 z"
           style="fill:#729fcf;fill-opacity:1;fill-rule:evenodd;stroke:none"
           id="path34"
           inkscape:connector-curvature="0" /><g
           id="g36"><path
             d="m 143.1,702.6 c 8.9,0 15.6,-12.7 15.6,-29.5 0,-16.7 -6.7,-29.5 -15.6,-29.5 -8.8,0 -15.5,12.8 -15.5,29.5 0,16.8 6.7,29.5 15.5,29.5 z"
             style="fill:none;stroke:#3465af;stroke-width:0.75;stroke-linecap:butt;stroke-linejoin:round;stroke-miterlimit:10;stroke-dasharray:none;stroke-opacity:1"
             id="path38"
             inkscape:connector-curvature="0" /></g><g
           id="g40"><path
             d="M 127.6,702.6 Z"
             style="fill:none;stroke:#3465af;stroke-width:0.75;stroke-linecap:butt;stroke-linejoin:round;stroke-miterlimit:10;stroke-dasharray:none;stroke-opacity:1"
             id="path42"
             inkscape:connector-curvature="0" /></g><g
           id="g44"><path
             d="M 158.8,643.5 Z"
             style="fill:none;stroke:#3465af;stroke-width:0.75;stroke-linecap:butt;stroke-linejoin:round;stroke-miterlimit:10;stroke-dasharray:none;stroke-opacity:1"
             id="path46"
             inkscape:connector-curvature="0" /></g><path
           d="m 141.7,701.9 226.8,83.4 V 701.9 L 141.7,643.6 Z"
           style="fill:#729fcf;fill-opacity:1;fill-rule:evenodd;stroke:none"
           id="path48"
           inkscape:connector-curvature="0" /><path
           d="m 369.9,785.3 c 12.1,0 21.3,-17.8 21.3,-41.1 0,-23.3 -9.2,-41.1 -21.3,-41.1 -12,0 -21.2,17.8 -21.2,41.1 0,23.3 9.2,41.1 21.2,41.1 z"
           style="fill:#ffffff;fill-opacity:1;fill-rule:evenodd;stroke:none"
           id="path50"
           inkscape:connector-curvature="0" /><g
           id="g52"><path
             d="m 369.9,785.3 c 12.1,0 21.3,-17.8 21.3,-41.1 0,-23.3 -9.2,-41.1 -21.3,-41.1 -12,0 -21.2,17.8 -21.2,41.1 0,23.3 9.2,41.1 21.2,41.1 z"
             style="fill:none;stroke:#3465af;stroke-width:0.75;stroke-linecap:butt;stroke-linejoin:round;stroke-miterlimit:10;stroke-dasharray:none;stroke-opacity:1"
             id="path54"
             inkscape:connector-curvature="0" /></g><g
           id="g56"><path
             d="M 348.7,785.3 Z"
             style="fill:none;stroke:#3465af;stroke-width:0.75;stroke-linecap:butt;stroke-linejoin:round;stroke-miterlimit:10;stroke-dasharray:none;stroke-opacity:1"
             id="path58"
             inkscape:connector-curvature="0" /></g><g
           id="g60"><path
             d="M 391.2,703.1 Z"
             style="fill:none;stroke:#3465af;stroke-width:0.75;stroke-linecap:butt;stroke-linejoin:round;stroke-miterlimit:10;stroke-dasharray:none;stroke-opacity:1"
             id="path62"
             inkscape:connector-curvature="0" /></g><g
           id="g64"><path
             d="M 255.1,722.5 V 695.1"
             style="fill:none;stroke:#000000;stroke-width:5.65999985;stroke-linecap:butt;stroke-linejoin:round;stroke-miterlimit:10;stroke-dasharray:none;stroke-opacity:1"
             id="path66"
             inkscape:connector-curvature="0" /></g><path
           d="M 255.1,742.8 248,721.5 h 14.2 z"
           style="fill:#000000;fill-opacity:1;fill-rule:evenodd;stroke:none"
           id="path68"
           inkscape:connector-curvature="0" /><path
           d="m 255.1,674.8 7.1,21.2 H 248 Z"
           style="fill:#000000;fill-opacity:1;fill-rule:evenodd;stroke:none"
           id="path70"
           inkscape:connector-curvature="0" /><text
           y="-756.59998"
           x="228.7"
           transform="scale(1,-1)"
           style="font-style:italic;font-variant:normal;font-weight:bold;font-size:24px;font-family:Arial;-inkscape-font-specification:Arial-BoldItalicMT;writing-mode:lr-tb;fill:#000000;fill-opacity:1;fill-rule:nonzero;stroke:none"
           id="text74"><tspan
             x="228.7"
             y="-756.59998"
             id="tspan72">A</tspan></text>
<text
           y="-746.5"
           x="246"
           transform="scale(1,-1)"
           style="font-style:italic;font-variant:normal;font-weight:bold;font-size:13.89999962px;font-family:Arial;-inkscape-font-specification:Arial-BoldItalicMT;writing-mode:lr-tb;fill:#000000;fill-opacity:1;fill-rule:nonzero;stroke:none"
           id="text78"><tspan
             x="246 249.79469"
             y="-746.5"
             sodipodi:role="line"
             id="tspan76">ij</tspan></text>
<text
           y="-676.20001"
           x="80.800003"
           transform="scale(1,-1)"
           style="font-variant:normal;font-weight:normal;font-size:32px;font-family:Arial;-inkscape-font-specification:ArialMT;writing-mode:lr-tb;fill:#000000;fill-opacity:1;fill-rule:nonzero;stroke:none"
           id="text82"><tspan
             x="80.800003"
             y="-676.20001"
             id="tspan80">i</tspan></text>
<text
           y="-769"
           x="446.5"
           transform="scale(1,-1)"
           style="font-variant:normal;font-weight:normal;font-size:36px;font-family:Arial;-inkscape-font-specification:ArialMT;writing-mode:lr-tb;fill:#000000;fill-opacity:1;fill-rule:nonzero;stroke:none"
           id="text86"><tspan
             x="446.5"
             y="-769"
             id="tspan84">j</tspan></text>
<path
           d="m 79.4,499 c 3.2,0 5.6,-2.5 5.6,-5.7 0,-3.2 -2.4,-5.6 -5.6,-5.6 -3.2,0 -5.7,2.4 -5.7,5.6 0,3.2 2.5,5.7 5.7,5.7 z"
           style="fill:#b80047;fill-opacity:1;fill-rule:evenodd;stroke:none"
           id="path88"
           inkscape:connector-curvature="0" /><path
           d="m 79.4,499 c 3.2,0 5.6,-2.5 5.6,-5.7 0,-3.2 -2.4,-5.6 -5.6,-5.6 -3.2,0 -5.7,2.4 -5.7,5.6 0,3.2 2.5,5.7 5.7,5.7 z"
           style="fill:#b80047;fill-opacity:1;fill-rule:evenodd;stroke:none"
           id="path90"
           inkscape:connector-curvature="0" /><path
           d="m 275,533 c 3.2,0 5.6,-2.4 5.6,-5.6 0,-3.2 -2.4,-5.7 -5.6,-5.7 -3.2,0 -5.7,2.5 -5.7,5.7 0,3.2 2.5,5.6 5.7,5.6 z"
           style="fill:#b80047;fill-opacity:1;fill-rule:evenodd;stroke:none"
           id="path92"
           inkscape:connector-curvature="0" /><path
           d="m 79.4,499 c 3.2,0 5.6,-2.5 5.6,-5.7 0,-3.2 -2.4,-5.6 -5.6,-5.6 -3.2,0 -5.7,2.4 -5.7,5.6 0,3.2 2.5,5.7 5.7,5.7 z"
           style="fill:#b80047;fill-opacity:1;fill-rule:evenodd;stroke:none"
           id="path94"
           inkscape:connector-curvature="0" /><path
           d="m 288.1,572.5 c 3.2,0 5.6,-2.4 5.6,-5.6 0,-3.2 -2.4,-5.7 -5.6,-5.7 -3.2,0 -5.7,2.5 -5.7,5.7 0,3.2 2.5,5.6 5.7,5.6 z"
           style="fill:#b80047;fill-opacity:1;fill-rule:evenodd;stroke:none"
           id="path96"
           inkscape:connector-curvature="0" /><path
           d="m 375.9,566.9 c 3.2,0 5.7,-2.5 5.7,-5.7 0,-3.2 -2.5,-5.7 -5.7,-5.7 -3.2,0 -5.6,2.5 -5.6,5.7 0,3.2 2.4,5.7 5.6,5.7 z"
           style="fill:#b80047;fill-opacity:1;fill-rule:evenodd;stroke:none"
           id="path98"
           inkscape:connector-curvature="0" /><path
           d="m 354.3,504.7 c 3.2,0 5.7,-2.5 5.7,-5.7 0,-3.2 -2.5,-5.7 -5.7,-5.7 -3.2,0 -5.6,2.5 -5.6,5.7 0,3.2 2.4,5.7 5.6,5.7 z"
           style="fill:#b80047;fill-opacity:1;fill-rule:evenodd;stroke:none"
           id="path100"
           inkscape:connector-curvature="0" /><path
           d="m 90.7,510.3 c 3.2,0 5.7,-2.4 5.7,-5.6 0,-3.2 -2.5,-5.7 -5.7,-5.7 -3.2,0 -5.7,2.5 -5.7,5.7 0,3.2 2.5,5.6 5.7,5.6 z"
           style="fill:#b80047;fill-opacity:1;fill-rule:evenodd;stroke:none"
           id="path102"
           inkscape:connector-curvature="0" /><path
           d="m 235.3,527.4 c 3.2,0 5.6,-2.5 5.6,-5.7 0,-3.2 -2.4,-5.7 -5.6,-5.7 -3.2,0 -5.7,2.5 -5.7,5.7 0,3.2 2.5,5.7 5.7,5.7 z"
           style="fill:#b80047;fill-opacity:1;fill-rule:evenodd;stroke:none"
           id="path104"
           inkscape:connector-curvature="0" /><path
           d="m 327.7,569.7 c 3.2,0 5.7,-2.5 5.7,-5.7 0,-3.2 -2.5,-5.6 -5.7,-5.6 -3.2,0 -5.6,2.4 -5.6,5.6 0,3.2 2.4,5.7 5.6,5.7 z"
           style="fill:#b80047;fill-opacity:1;fill-rule:evenodd;stroke:none"
           id="path106"
           inkscape:connector-curvature="0" /><path
           d="m 350.4,547 c 3.2,0 5.7,-2.4 5.7,-5.6 0,-3.2 -2.5,-5.7 -5.7,-5.7 -3.2,0 -5.7,2.5 -5.7,5.7 0,3.2 2.5,5.6 5.7,5.6 z"
           style="fill:#b80047;fill-opacity:1;fill-rule:evenodd;stroke:none"
           id="path108"
           inkscape:connector-curvature="0" /><path
           d="m 99.2,484.8 c 3.2,0 5.7,-2.4 5.7,-5.6 0,-3.2 -2.5,-5.7 -5.7,-5.7 -3.2,0 -5.7,2.5 -5.7,5.7 0,3.2 2.5,5.6 5.7,5.6 z"
           style="fill:#b80047;fill-opacity:1;fill-rule:evenodd;stroke:none"
           id="path110"
           inkscape:connector-curvature="0" /><path
           d="m 280.6,513.2 c 3.2,0 5.7,-2.5 5.7,-5.7 0,-3.2 -2.5,-5.7 -5.7,-5.7 -3.2,0 -5.6,2.5 -5.6,5.7 0,3.2 2.4,5.7 5.6,5.7 z"
           style="fill:#b80047;fill-opacity:1;fill-rule:evenodd;stroke:none"
           id="path112"
           inkscape:connector-curvature="0" /><path
           d="m 333.8,556.6 c 3.2,0 5.7,-2.5 5.7,-5.7 0,-3.2 -2.5,-5.7 -5.7,-5.7 -3.2,0 -5.7,2.5 -5.7,5.7 0,3.2 2.5,5.7 5.7,5.7 z"
           style="fill:#b80047;fill-opacity:1;fill-rule:evenodd;stroke:none"
           id="path114"
           inkscape:connector-curvature="0" /><path
           d="m 305.1,583.9 c 3.2,0 5.6,-2.5 5.6,-5.7 0,-3.2 -2.4,-5.7 -5.6,-5.7 -3.2,0 -5.7,2.5 -5.7,5.7 0,3.2 2.5,5.7 5.7,5.7 z"
           style="fill:#b80047;fill-opacity:1;fill-rule:evenodd;stroke:none"
           id="path116"
           inkscape:connector-curvature="0" /><path
           d="m 353.3,578.2 c 3.2,0 5.6,-2.5 5.6,-5.7 0,-3.2 -2.4,-5.6 -5.6,-5.6 -3.2,0 -5.7,2.4 -5.7,5.6 0,3.2 2.5,5.7 5.7,5.7 z"
           style="fill:#b80047;fill-opacity:1;fill-rule:evenodd;stroke:none"
           id="path118"
           inkscape:connector-curvature="0" /><path
           d="m 124.7,487.7 c 3.2,0 5.7,-2.5 5.7,-5.7 0,-3.2 -2.5,-5.7 -5.7,-5.7 -3.2,0 -5.6,2.5 -5.6,5.7 0,3.2 2.4,5.7 5.6,5.7 z"
           style="fill:#b80047;fill-opacity:1;fill-rule:evenodd;stroke:none"
           id="path120"
           inkscape:connector-curvature="0" /><g
           id="g122"><path
             d="m 423.8,734.3 h -18.4 v 42.3 h 36.8 v -42.3 z"
             style="fill:none;stroke:#b80047;stroke-width:0.75;stroke-linecap:butt;stroke-linejoin:round;stroke-miterlimit:10;stroke-dasharray:none;stroke-opacity:1"
             id="path124"
             inkscape:connector-curvature="0" /></g><g
           id="g126"><text
             transform="matrix(1,0,0,-1,412.5,750.9)"
             style="font-style:italic;font-variant:normal;font-weight:bold;font-size:24px;font-family:Arial;-inkscape-font-specification:Arial-BoldItalicMT;writing-mode:lr-tb;fill:#b80047;fill-opacity:1;fill-rule:nonzero;stroke:none"
             id="text130"><tspan
               x="0"
               y="0"
               id="tspan128">w</tspan></text>
</g><g
           id="g132"><text
             transform="matrix(1,0,0,-1,431.2,740.8)"
             style="font-style:italic;font-variant:normal;font-weight:bold;font-size:13.89999962px;font-family:Arial;-inkscape-font-specification:Arial-BoldItalicMT;writing-mode:lr-tb;fill:#b80047;fill-opacity:1;fill-rule:nonzero;stroke:none"
             id="text136"><tspan
               x="0"
               y="0"
               id="tspan134">j</tspan></text>
</g><g
           id="g138"><path
             d="m 85.8,513.5 h -28 v 36.4 h 56 v -36.4 z"
             style="fill:none;stroke:#b80047;stroke-width:0.75;stroke-linecap:butt;stroke-linejoin:round;stroke-miterlimit:10;stroke-dasharray:none;stroke-opacity:1"
             id="path140"
             inkscape:connector-curvature="0" /></g><g
           id="g142"><text
             transform="matrix(1,0,0,-1,64.9,527.8)"
             style="font-style:italic;font-variant:normal;font-weight:bold;font-size:20px;font-family:Arial;-inkscape-font-specification:Arial-BoldItalicMT;writing-mode:lr-tb;fill:#b80047;fill-opacity:1;fill-rule:nonzero;stroke:none"
             id="text146"><tspan
               x="0"
               y="0"
               id="tspan144">w</tspan></text>
</g><g
           id="g148"><text
             transform="matrix(1,0,0,-1,80.4,519.4)"
             style="font-style:italic;font-variant:normal;font-weight:bold;font-size:11.60000038px;font-family:Arial;-inkscape-font-specification:Arial-BoldItalicMT;writing-mode:lr-tb;fill:#b80047;fill-opacity:1;fill-rule:nonzero;stroke:none"
             id="text152"><tspan
               x="0"
               y="0"
               id="tspan150">j</tspan></text>
</g><g
           id="g154"><text
             transform="matrix(1,0,0,-1,83.7,527.8)"
             style="font-style:italic;font-variant:normal;font-weight:bold;font-size:20px;font-family:Arial;-inkscape-font-specification:Arial-BoldItalicMT;writing-mode:lr-tb;fill:#b80047;fill-opacity:1;fill-rule:nonzero;stroke:none"
             id="text158"><tspan
               x="0 11.68"
               y="0"
               sodipodi:role="line"
               id="tspan156">=4</tspan></text>
</g><path
           d="m 405.7,764.5 -34,-12.3 -3.8,10.6 -3.6,-25.4 19.1,-17.2 -3.9,10.7 34,12.3 z"
           style="fill:#b80047;fill-opacity:1;fill-rule:evenodd;stroke:none"
           id="path160"
           inkscape:connector-curvature="0" /><path
           d="m 437.2,705.1 31,-18.6 -5.8,-9.7 22,13.2 1.3,25.7 -5.8,-9.7 -31,18.6 z"
           style="fill:#b80047;fill-opacity:1;fill-rule:evenodd;stroke:none"
           id="path162"
           inkscape:connector-curvature="0" /><path
           d="m 451.3,730.6 36.1,0.6 0.2,-11.3 11.7,22.9 -12.4,22.4 0.1,-11.3 -36.1,-0.6 z"
           style="fill:#b80047;fill-opacity:1;fill-rule:evenodd;stroke:none"
           id="path164"
           inkscape:connector-curvature="0" /></g></g><g
       id="g166"><g
         id="g168" /><g
         id="g176"><g
           clip-path="url(#clipPath172)"
           id="g174"
           style="opacity:0.5" /></g></g></g></svg>